<?xml version="1.0" encoding="UTF-8"?>
<!DOCTYPE svg PUBLIC "-//W3C//DTD SVG 1.1//EN" "http://www.w3.org/Graphics/SVG/1.1/DTD/svg11.dtd">
<svg xmlns="http://www.w3.org/2000/svg" version="1.1" width="667px" height="400px" style="shape-rendering:geometricPrecision; text-rendering:geometricPrecision; image-rendering:optimizeQuality; fill-rule:evenodd; clip-rule:evenodd" xmlns:xlink="http://www.w3.org/1999/xlink">
<g><path style="opacity:1" fill="#fefefe" d="M -0.5,-0.5 C 221.833,-0.5 444.167,-0.5 666.5,-0.5C 666.5,132.833 666.5,266.167 666.5,399.5C 444.167,399.5 221.833,399.5 -0.5,399.5C -0.5,266.167 -0.5,132.833 -0.5,-0.5 Z"/></g>
<g><path style="opacity:1" fill="#767676" d="M 137.5,65.5 C 137.435,68.4282 136.768,71.0948 135.5,73.5C 135.294,70.5049 135.96,67.8383 137.5,65.5 Z"/></g>
<g><path style="opacity:1" fill="#2a2a2a" d="M 220.5,73.5 C 220.61,85.5164 220.277,97.5164 219.5,109.5C 217.686,118.206 215.352,126.872 212.5,135.5C 211.876,135.917 211.543,136.584 211.5,137.5C 211.747,138.713 212.414,139.38 213.5,139.5C 214.995,139.989 216.329,140.655 217.5,141.5C 215.283,142.369 212.95,142.702 210.5,142.5C 210.762,141.022 210.429,139.689 209.5,138.5C 205.813,146.353 199.813,151.52 191.5,154C 189.741,154.798 188.074,154.631 186.5,153.5C 189.172,146.824 192.505,140.491 196.5,134.5C 195.194,132.069 194.194,132.403 193.5,135.5C 192.808,134.975 192.308,134.308 192,133.5C 190.093,139.175 187.593,144.509 184.5,149.5C 184.709,150.086 185.043,150.586 185.5,151C 182.876,151.576 182.209,152.91 183.5,155C 179.5,155.667 175.5,155.667 171.5,155C 172.5,154.667 173.5,154.333 174.5,154C 173.748,153.329 173.414,152.496 173.5,151.5C 174.482,152.141 175.482,152.807 176.5,153.5C 179.714,147.448 182.714,141.281 185.5,135C 182.5,134.833 179.5,134.667 176.5,134.5C 173.087,134.517 170.087,135.184 167.5,136.5C 166.624,136.369 165.957,136.702 165.5,137.5C 168.939,142.506 170.939,147.839 171.5,153.5C 170.749,152.624 170.249,151.624 170,150.5C 168.748,152.001 167.748,153.668 167,155.5C 157.263,152.767 150.263,146.767 146,137.5C 145.617,138.056 145.117,138.389 144.5,138.5C 144.737,137.209 144.404,136.209 143.5,135.5C 141.147,127.408 138.814,119.408 136.5,111.5C 136.638,106.586 135.972,101.919 134.5,97.5C 134.199,89.4144 134.533,81.4144 135.5,73.5C 136.768,71.0948 137.435,68.4282 137.5,65.5C 140.2,55.8085 145.867,48.4752 154.5,43.5C 159.705,39.6933 165.705,38.0266 172.5,38.5C 189.069,37.8475 202.902,43.5142 214,55.5C 217.386,61.037 219.553,67.037 220.5,73.5 Z"/></g>
<g><path style="opacity:1" fill="#4a4a4a" d="M 163.5,65.5 C 164.832,75.8118 165.499,86.4784 165.5,97.5C 165.167,108.167 164.833,118.833 164.5,129.5C 156.239,113.793 152.406,97.1265 153,79.5C 154.156,75.1801 156.323,71.5135 159.5,68.5C 160.795,67.5116 162.128,66.5116 163.5,65.5 Z"/></g>
<g><path style="opacity:1" fill="#4c4c4c" d="M 187.5,65.5 C 196.963,68.8984 201.296,75.7318 200.5,86C 198.584,100.833 194.417,114.999 188,128.5C 187.5,107.503 187.333,86.5026 187.5,65.5 Z"/></g>
<g><path style="opacity:1" fill="#4c4c4c" d="M 171.5,62.5 C 176.193,62.5401 180.859,62.8734 185.5,63.5C 185.5,85.5 185.5,107.5 185.5,129.5C 179.167,129.5 172.833,129.5 166.5,129.5C 166.333,107.831 166.5,86.1641 167,64.5C 168.622,63.9011 170.122,63.2344 171.5,62.5 Z"/></g>
<g><path style="opacity:1" fill="#222222" d="M 163.5,65.5 C 162.128,66.5116 160.795,67.5116 159.5,68.5C 158.355,67.2073 158.689,66.0407 160.5,65C 159.833,64.6667 159.167,64.3333 158.5,64C 159.711,63.1072 159.711,62.2739 158.5,61.5C 155.791,64.7086 152.625,67.3752 149,69.5C 148.329,74.1998 147.496,78.8664 146.5,83.5C 145.928,81.0829 144.928,78.9162 143.5,77C 146.403,69.4242 150.903,62.9242 157,57.5C 157.867,53.0442 157.534,48.7109 156,44.5C 153.821,45.8398 153.321,45.5065 154.5,43.5C 155.583,43.4606 156.583,43.1272 157.5,42.5C 160.295,44.5148 160.961,47.0148 159.5,50C 161.037,51.1096 161.703,52.6096 161.5,54.5C 163.722,54.822 165.556,54.1554 167,52.5C 171.115,53.7435 175.281,53.7435 179.5,52.5C 183.197,53.5658 186.864,54.7324 190.5,56C 189.892,56.8699 189.059,57.3699 188,57.5C 185.864,56.7323 183.697,56.0656 181.5,55.5C 175.876,56.7455 170.209,57.2455 164.5,57C 166.5,56.6667 168.5,56.3333 170.5,56C 167.833,55.3333 165.167,55.3333 162.5,56C 162.58,58.2796 161.913,60.6129 160.5,63C 162.119,63.2355 163.119,64.0689 163.5,65.5 Z"/></g>
<g><path style="opacity:1" fill="#b8b8b8" d="M 220.5,73.5 C 221.166,78.1547 221.499,82.9881 221.5,88C 221.673,95.3958 221.007,102.562 219.5,109.5C 220.277,97.5164 220.61,85.5164 220.5,73.5 Z"/></g>
<g><path style="opacity:1" fill="#cccccc" d="M 134.5,97.5 C 135.972,101.919 136.638,106.586 136.5,111.5C 134.896,107.1 134.229,102.434 134.5,97.5 Z"/></g>
<g><path style="opacity:1" fill="#b4b4b4" d="M 445.5,107.5 C 446.768,109.905 447.435,112.572 447.5,115.5C 445.96,113.162 445.294,110.495 445.5,107.5 Z"/></g>
<g><path style="opacity:1" fill="#4b4b4b" d="M 173.5,151.5 C 172.272,146.142 170.272,141.142 167.5,136.5C 170.087,135.184 173.087,134.517 176.5,134.5C 179.5,134.667 182.5,134.833 185.5,135C 182.714,141.281 179.714,147.448 176.5,153.5C 175.482,152.807 174.482,152.141 173.5,151.5 Z"/></g>
<g><path style="opacity:1" fill="#838383" d="M 143.5,135.5 C 144.404,136.209 144.737,137.209 144.5,138.5C 144.5,138.833 144.5,139.167 144.5,139.5C 143.5,139.5 142.5,139.5 141.5,139.5C 142.806,138.533 143.473,137.199 143.5,135.5 Z"/></g>
<g><path style="opacity:1" fill="#858585" d="M 212.5,135.5 C 212.433,136.959 212.766,138.292 213.5,139.5C 212.414,139.38 211.747,138.713 211.5,137.5C 211.543,136.584 211.876,135.917 212.5,135.5 Z"/></g>
<g><path style="opacity:1" fill="#888888" d="M 137.5,140.5 C 136.486,141.674 135.153,142.34 133.5,142.5C 134.287,140.896 135.62,140.229 137.5,140.5 Z"/></g>
<g><path style="opacity:1" fill="#2b2b2b" d="M 556.5,151.5 C 551.804,165.388 549.637,179.721 550,194.5C 550.95,205.93 556.45,214.264 566.5,219.5C 567.833,246.167 569.167,272.833 570.5,299.5C 570.875,272.519 570.375,245.519 569,218.5C 556.768,211.232 550.935,200.399 551.5,186C 551.959,174.403 554.292,163.236 558.5,152.5C 561.812,157.113 564.646,162.113 567,167.5C 586.622,212.739 605.122,258.406 622.5,304.5C 622.41,307.152 623.076,309.485 624.5,311.5C 627.504,319.192 628.837,327.192 628.5,335.5C 627.735,335.077 626.902,334.743 626,334.5C 618.468,338.397 610.968,342.064 603.5,345.5C 598.809,341.642 594.642,337.309 591,332.5C 584.572,322.639 578.405,312.639 572.5,302.5C 572.217,301.711 571.717,301.044 571,300.5C 570.5,308.159 570.334,315.826 570.5,323.5C 569.741,334.817 569.407,346.15 569.5,357.5C 569.167,357.5 568.833,357.5 568.5,357.5C 568.5,356.833 568.5,356.167 568.5,355.5C 568.5,351.5 568.5,347.5 568.5,343.5C 568.664,340.813 568.497,338.146 568,335.5C 515.572,336.497 463.072,336.831 410.5,336.5C 409.734,332.168 408.9,327.834 408,323.5C 407.713,325.891 407.213,328.224 406.5,330.5C 407.609,332.214 406.942,332.881 404.5,332.5C 404.657,331.127 404.49,329.793 404,328.5C 402.689,332.262 403.856,334.595 407.5,335.5C 405.833,335.5 404.167,335.5 402.5,335.5C 402.5,331.167 402.5,326.833 402.5,322.5C 404.167,322.5 405.833,322.5 407.5,322.5C 407.831,314.804 407.497,307.138 406.5,299.5C 405.702,299.957 405.369,300.624 405.5,301.5C 400.108,309.938 394.941,318.605 390,327.5C 385.008,334.322 379.508,340.655 373.5,346.5C 366.315,343.136 358.982,339.636 351.5,336C 350.718,333.26 350.218,330.426 350,327.5C 349.819,330.695 349.319,333.695 348.5,336.5C 348.369,330.779 348.869,325.112 350,319.5C 367.468,268.22 387.468,217.886 410,168.5C 412.34,163.145 415.174,158.145 418.5,153.5C 418.577,152.25 419.244,151.417 420.5,151C 424.215,149.705 427.882,148.538 431.5,147.5C 433.967,147.245 435.967,146.245 437.5,144.5C 443.693,143.067 449.36,140.567 454.5,137C 451.757,129.821 449.423,122.654 447.5,115.5C 447.435,112.572 446.768,109.905 445.5,107.5C 442.119,91.9123 442.952,76.5789 448,61.5C 451.69,52.3847 457.857,45.7181 466.5,41.5C 468.858,39.8714 471.524,38.7048 474.5,38C 488.382,35.6093 501.382,37.9427 513.5,45C 521.205,49.908 526.372,56.7413 529,65.5C 532.907,90.0393 530.407,113.873 521.5,137C 523.232,138.695 525.232,140.028 527.5,141C 537.545,143.751 547.211,147.251 556.5,151.5 Z"/></g>
<g><path style="opacity:1" fill="#2a2a2a" d="M 258.5,300.5 C 258.5,307.833 258.5,315.167 258.5,322.5C 260.167,322.5 261.833,322.5 263.5,322.5C 263.5,326.5 263.5,330.5 263.5,334.5C 261.585,334.216 259.919,334.549 258.5,335.5C 258.167,335.5 257.833,335.5 257.5,335.5C 257.167,335.5 256.833,335.5 256.5,335.5C 203.228,335.828 150.228,336.828 97.5,338.5C 97.5,344.833 97.5,351.167 97.5,357.5C 97.1667,357.5 96.8333,357.5 96.5,357.5C 96.5,349.833 96.5,342.167 96.5,334.5C 98.1613,332.511 99.328,330.178 100,327.5C 100.667,317.833 100.667,308.167 100,298.5C 98.73,306.397 98.0633,314.397 98,322.5C 96.9767,318.068 96.4767,313.568 96.5,309C 96.9035,297.817 97.5701,286.65 98.5,275.5C 100.016,276.804 100.682,276.304 100.5,274C 99.2327,264.585 98.566,255.085 98.5,245.5C 98.6667,236.833 98.8333,228.167 99,219.5C 101.118,218.717 102.618,217.384 103.5,215.5C 104.552,215.649 105.552,215.483 106.5,215C 110.758,210.652 113.592,205.486 115,199.5C 116.406,184.601 115.239,169.934 111.5,155.5C 122.959,151.804 134.292,147.804 145.5,143.5C 148.158,146.124 150.825,148.791 153.5,151.5C 156.815,153.996 160.481,155.83 164.5,157C 174.212,157.824 183.879,157.491 193.5,156C 199.55,152.649 205.216,148.815 210.5,144.5C 221.481,147.382 232.148,151.049 242.5,155.5C 242.833,156.833 243.167,158.167 243.5,159.5C 240.241,171.269 239.074,183.269 240,195.5C 241.361,200.278 243.028,204.944 245,209.5C 248.237,213.614 251.903,217.281 256,220.5C 257.731,246.186 257.898,271.853 256.5,297.5C 256.942,298.739 257.609,299.739 258.5,300.5 Z"/></g>
<g><path style="opacity:1" fill="#1b1b1b" d="M 466.5,41.5 C 467.534,42.6871 468.867,43.5204 470.5,44C 467.456,44.3589 467.122,45.0255 469.5,46C 468.848,50.252 468.514,54.5853 468.5,59C 469.319,79.1672 470.153,99.3339 471,119.5C 471.131,128.616 472.131,137.616 474,146.5C 475.491,148.004 477.324,148.837 479.5,149C 484.833,149.667 490.167,149.667 495.5,149C 497.519,148.55 499.352,147.717 501,146.5C 501.595,145.101 501.428,143.768 500.5,142.5C 502.404,137.683 503.571,132.683 504,127.5C 505.168,100.808 506.668,74.1418 508.5,47.5C 508.833,48.8333 509.167,50.1667 509.5,51.5C 507.196,83.3067 505.863,114.973 505.5,146.5C 510.813,144.51 515.48,141.51 519.5,137.5C 519.109,138.718 519.776,139.552 521.5,140C 508.002,150.639 492.669,154.305 475.5,151C 471.106,149.869 466.773,148.535 462.5,147C 460.14,144.647 457.473,142.647 454.5,141C 455.667,140.5 456.5,139.667 457,138.5C 460.505,142.836 465.005,145.503 470.5,146.5C 469.289,112.587 467.622,78.7538 465.5,45C 465.619,43.8552 465.952,42.6885 466.5,41.5 Z"/></g>
<g><path style="opacity:1" fill="#767676" d="M 437.5,144.5 C 435.967,146.245 433.967,147.245 431.5,147.5C 433.033,145.755 435.033,144.755 437.5,144.5 Z"/></g>
<g><path style="opacity:1" fill="#343434" d="M 141.5,139.5 C 142.5,139.5 143.5,139.5 144.5,139.5C 144.64,141.124 143.973,142.29 142.5,143C 137.008,144.851 131.342,145.851 125.5,146C 126.833,146.333 128.167,146.667 129.5,147C 125.308,149.277 120.975,149.777 116.5,148.5C 121.801,145.731 127.468,143.731 133.5,142.5C 135.153,142.34 136.486,141.674 137.5,140.5C 138.708,139.766 140.041,139.433 141.5,139.5 Z"/></g>
<g><path style="opacity:1" fill="#2b2b2b" d="M 107.5,152.5 C 113.457,167.628 115.29,183.295 113,199.5C 110.55,205.422 107.383,210.756 103.5,215.5C 100.901,215.549 98.7342,216.549 97,218.5C 96.1909,245.411 95.0242,272.245 93.5,299C 94.4158,299.278 95.0825,299.778 95.5,300.5C 94.1667,300.5 93.5,301.167 93.5,302.5C 88.4266,310.306 83.5932,318.306 79,326.5C 74.3798,333.389 69.0465,339.723 63,345.5C 60.6276,350.412 58.1276,355.245 55.5,360C 47.7853,359.57 40.452,357.57 33.5,354C 32.1955,353.196 31.5288,352.029 31.5,350.5C 33.6316,345.996 35.4649,341.33 37,336.5C 37.1705,327.981 38.5038,319.648 41,311.5C 58.5634,261.834 78.23,213.168 100,165.5C 102.022,160.777 104.522,156.443 107.5,152.5 Z"/></g>
<g><path style="opacity:1" fill="#2b2b2b" d="M 247.5,153.5 C 253.084,162.332 257.918,171.666 262,181.5C 270.048,199.598 277.548,217.931 284.5,236.5C 284.427,238.027 285.094,239.027 286.5,239.5C 291.586,251.768 296.252,264.101 300.5,276.5C 300.427,278.027 301.094,279.027 302.5,279.5C 308.197,294.561 313.03,309.894 317,325.5C 317.499,329.152 317.665,332.818 317.5,336.5C 316.85,336.196 316.183,335.863 315.5,335.5C 308.714,338.644 301.88,341.644 295,344.5C 293.375,343.588 292.541,344.255 292.5,346.5C 288.502,343.335 285.002,339.668 282,335.5C 274.559,324.271 267.392,312.938 260.5,301.5C 260.167,300.5 259.5,299.833 258.5,299.5C 259.626,273.122 259.793,246.455 259,219.5C 246.843,211.488 241.009,200.154 241.5,185.5C 242.722,178.557 243.556,171.557 244,164.5C 244.474,160.578 245.641,156.912 247.5,153.5 Z"/></g>
<g><path style="opacity:1" fill="#1d1d1d" d="M 217.5,141.5 C 224.91,143.692 232.243,146.192 239.5,149C 242.448,150.237 245.115,151.737 247.5,153.5C 245.641,156.912 244.474,160.578 244,164.5C 243.556,171.557 242.722,178.557 241.5,185.5C 241.009,200.154 246.843,211.488 259,219.5C 259.793,246.455 259.626,273.122 258.5,299.5C 258.5,299.833 258.5,300.167 258.5,300.5C 257.609,299.739 256.942,298.739 256.5,297.5C 257.898,271.853 257.731,246.186 256,220.5C 251.903,217.281 248.237,213.614 245,209.5C 243.028,204.944 241.361,200.278 240,195.5C 239.074,183.269 240.241,171.269 243.5,159.5C 243.167,158.167 242.833,156.833 242.5,155.5C 232.148,151.049 221.481,147.382 210.5,144.5C 205.216,148.815 199.55,152.649 193.5,156C 183.879,157.491 174.212,157.824 164.5,157C 160.481,155.83 156.815,153.996 153.5,151.5C 150.825,148.791 148.158,146.124 145.5,143.5C 134.292,147.804 122.959,151.804 111.5,155.5C 115.239,169.934 116.406,184.601 115,199.5C 113.592,205.486 110.758,210.652 106.5,215C 105.552,215.483 104.552,215.649 103.5,215.5C 107.383,210.756 110.55,205.422 113,199.5C 115.29,183.295 113.457,167.628 107.5,152.5C 107.62,151.414 108.287,150.747 109.5,150.5C 111.762,149.533 114.095,148.866 116.5,148.5C 120.975,149.777 125.308,149.277 129.5,147C 128.167,146.667 126.833,146.333 125.5,146C 131.342,145.851 137.008,144.851 142.5,143C 143.973,142.29 144.64,141.124 144.5,139.5C 144.5,139.167 144.5,138.833 144.5,138.5C 145.117,138.389 145.617,138.056 146,137.5C 150.263,146.767 157.263,152.767 167,155.5C 167.748,153.668 168.748,152.001 170,150.5C 170.249,151.624 170.749,152.624 171.5,153.5C 170.939,147.839 168.939,142.506 165.5,137.5C 165.957,136.702 166.624,136.369 167.5,136.5C 170.272,141.142 172.272,146.142 173.5,151.5C 173.414,152.496 173.748,153.329 174.5,154C 173.5,154.333 172.5,154.667 171.5,155C 175.5,155.667 179.5,155.667 183.5,155C 182.209,152.91 182.876,151.576 185.5,151C 185.043,150.586 184.709,150.086 184.5,149.5C 187.593,144.509 190.093,139.175 192,133.5C 192.308,134.308 192.808,134.975 193.5,135.5C 194.194,132.403 195.194,132.069 196.5,134.5C 192.505,140.491 189.172,146.824 186.5,153.5C 188.074,154.631 189.741,154.798 191.5,154C 199.813,151.52 205.813,146.353 209.5,138.5C 210.429,139.689 210.762,141.022 210.5,142.5C 212.95,142.702 215.283,142.369 217.5,141.5 Z"/></g>
<g><path style="opacity:1" fill="#9a9a9a" d="M 284.5,236.5 C 285.906,236.973 286.573,237.973 286.5,239.5C 285.094,239.027 284.427,238.027 284.5,236.5 Z"/></g>
<g><path style="opacity:1" fill="#1b1b1b" d="M 556.5,151.5 C 557.492,151.328 558.158,151.662 558.5,152.5C 554.292,163.236 551.959,174.403 551.5,186C 550.935,200.399 556.768,211.232 569,218.5C 570.375,245.519 570.875,272.519 570.5,299.5C 569.167,272.833 567.833,246.167 566.5,219.5C 556.45,214.264 550.95,205.93 550,194.5C 549.637,179.721 551.804,165.388 556.5,151.5 Z"/></g>
<g><path style="opacity:1" fill="#1b1b1b" d="M 418.5,153.5 C 419.15,153.196 419.817,152.863 420.5,152.5C 425.071,166.143 426.905,180.143 426,194.5C 424.989,201.563 422.322,207.897 418,213.5C 415.356,215.31 412.856,217.31 410.5,219.5C 409.673,223.459 409.173,227.459 409,231.5C 408.833,253.508 408.333,275.508 407.5,297.5C 406.914,297.709 406.414,298.043 406,298.5C 406.567,271.91 407.234,245.243 408,218.5C 416.537,213.102 421.87,205.436 424,195.5C 424.657,184.761 423.99,174.094 422,163.5C 421.102,160.045 419.935,156.711 418.5,153.5 Z"/></g>
<g><path style="opacity:1" fill="#a2a2a2" d="M 300.5,276.5 C 301.906,276.973 302.573,277.973 302.5,279.5C 301.094,279.027 300.427,278.027 300.5,276.5 Z"/></g>
<g><path style="opacity:1" fill="#222222" d="M 103.5,215.5 C 102.618,217.384 101.118,218.717 99,219.5C 98.8333,228.167 98.6667,236.833 98.5,245.5C 98.566,255.085 99.2327,264.585 100.5,274C 100.682,276.304 100.016,276.804 98.5,275.5C 97.5701,286.65 96.9035,297.817 96.5,309C 96.4767,313.568 96.9767,318.068 98,322.5C 98.0633,314.397 98.73,306.397 100,298.5C 100.667,308.167 100.667,317.833 100,327.5C 99.328,330.178 98.1613,332.511 96.5,334.5C 95.9791,330.519 95.6458,326.519 95.5,322.5C 95.5,315.167 95.5,307.833 95.5,300.5C 95.0825,299.778 94.4158,299.278 93.5,299C 95.0242,272.245 96.1909,245.411 97,218.5C 98.7342,216.549 100.901,215.549 103.5,215.5 Z"/></g>
<g><path style="opacity:1" fill="#9c9c9c" d="M 95.5,300.5 C 95.5,307.833 95.5,315.167 95.5,322.5C 94.8333,315.833 94.1667,309.167 93.5,302.5C 93.5,301.167 94.1667,300.5 95.5,300.5 Z"/></g>
<g><path style="opacity:1" fill="#696969" d="M 622.5,304.5 C 623.924,306.515 624.59,308.848 624.5,311.5C 623.076,309.485 622.41,307.152 622.5,304.5 Z"/></g>
<g><path style="opacity:1" fill="#aeaeae" d="M 258.5,299.5 C 259.5,299.833 260.167,300.5 260.5,301.5C 259.509,307.979 259.176,314.646 259.5,321.5C 261.099,321.232 262.432,321.566 263.5,322.5C 261.833,322.5 260.167,322.5 258.5,322.5C 258.5,315.167 258.5,307.833 258.5,300.5C 258.5,300.167 258.5,299.833 258.5,299.5 Z"/></g>
<g><path style="opacity:1" fill="#a2a2a2" d="M 572.5,302.5 C 571.833,309.5 571.167,316.5 570.5,323.5C 570.334,315.826 570.5,308.159 571,300.5C 571.717,301.044 572.217,301.711 572.5,302.5 Z"/></g>
<g><path style="opacity:1" fill="#9e9e9e" d="M 263.5,322.5 C 264.485,326.634 264.818,330.968 264.5,335.5C 262.5,335.5 260.5,335.5 258.5,335.5C 259.919,334.549 261.585,334.216 263.5,334.5C 263.5,330.5 263.5,326.5 263.5,322.5 Z"/></g>
<g><path style="opacity:1" fill="#adadad" d="M 402.5,335.5 C 401.514,331.03 401.181,326.363 401.5,321.5C 403.167,321.5 404.833,321.5 406.5,321.5C 406.824,314.646 406.491,307.979 405.5,301.5C 405.369,300.624 405.702,299.957 406.5,299.5C 407.497,307.138 407.831,314.804 407.5,322.5C 405.833,322.5 404.167,322.5 402.5,322.5C 402.5,326.833 402.5,331.167 402.5,335.5 Z"/></g>
<g><path style="opacity:1" fill="#181818" d="M 256.5,335.5 C 256.5,341.833 256.5,348.167 256.5,354.5C 255.512,349.36 255.179,344.026 255.5,338.5C 202.833,338.5 150.167,338.5 97.5,338.5C 150.228,336.828 203.228,335.828 256.5,335.5 Z"/></g>
<g><path style="opacity:1" fill="#242424" d="M 97.5,338.5 C 150.167,338.5 202.833,338.5 255.5,338.5C 255.179,344.026 255.512,349.36 256.5,354.5C 256.5,355.5 256.5,356.5 256.5,357.5C 203.5,357.5 150.5,357.5 97.5,357.5C 97.5,351.167 97.5,344.833 97.5,338.5 Z"/></g>
<g><path style="opacity:1" fill="#252525" d="M 568.5,343.5 C 568.5,347.5 568.5,351.5 568.5,355.5C 542.908,356.49 517.241,356.824 491.5,356.5C 491.167,339.167 490.833,339.167 490.5,356.5C 463.833,356.5 437.167,356.5 410.5,356.5C 410.5,350.5 410.5,344.5 410.5,338.5C 462.833,338.5 515.167,338.5 567.5,338.5C 567.216,340.415 567.549,342.081 568.5,343.5 Z"/></g>
<g><path style="opacity:1" fill="#252525" d="M 317.5,336.5 C 319.854,341.201 321.854,346.201 323.5,351.5C 323.167,352.167 322.833,352.833 322.5,353.5C 317.966,356.108 313.299,358.108 308.5,359.5C 305.098,360.46 301.765,360.46 298.5,359.5C 295.756,355.552 293.756,351.218 292.5,346.5C 292.541,344.255 293.375,343.588 295,344.5C 301.88,341.644 308.714,338.644 315.5,335.5C 316.183,335.863 316.85,336.196 317.5,336.5 Z"/></g>
<g><path style="opacity:1" fill="#252525" d="M 373.5,346.5 C 371.833,351.335 369.499,355.835 366.5,360C 358.78,359.931 351.446,358.097 344.5,354.5C 343.447,353.562 342.78,352.395 342.5,351C 344.391,346.061 346.391,341.227 348.5,336.5C 349.319,333.695 349.819,330.695 350,327.5C 350.218,330.426 350.718,333.26 351.5,336C 358.982,339.636 366.315,343.136 373.5,346.5 Z"/></g>
<g><path style="opacity:1" fill="#252525" d="M 628.5,335.5 C 630.767,340.371 632.767,345.371 634.5,350.5C 631.752,353.386 628.419,355.553 624.5,357C 619.811,358.342 615.145,359.342 610.5,360C 607.755,355.343 605.421,350.51 603.5,345.5C 610.968,342.064 618.468,338.397 626,334.5C 626.902,334.743 627.735,335.077 628.5,335.5 Z"/></g>
<g><path style="opacity:1" fill="#1a1a1a" d="M 568.5,343.5 C 567.549,342.081 567.216,340.415 567.5,338.5C 515.167,338.5 462.833,338.5 410.5,338.5C 410.5,344.5 410.5,350.5 410.5,356.5C 437.167,356.5 463.833,356.5 490.5,356.5C 490.833,339.167 491.167,339.167 491.5,356.5C 517.241,356.824 542.908,356.49 568.5,355.5C 568.5,356.167 568.5,356.833 568.5,357.5C 515.5,357.5 462.5,357.5 409.5,357.5C 409.825,349.981 409.492,342.648 408.5,335.5C 408.167,335.5 407.833,335.5 407.5,335.5C 403.856,334.595 402.689,332.262 404,328.5C 404.49,329.793 404.657,331.127 404.5,332.5C 406.942,332.881 407.609,332.214 406.5,330.5C 407.213,328.224 407.713,325.891 408,323.5C 408.9,327.834 409.734,332.168 410.5,336.5C 463.072,336.831 515.572,336.497 568,335.5C 568.497,338.146 568.664,340.813 568.5,343.5 Z"/></g>
<g><path style="opacity:1" fill="#626262" d="M 256.5,335.5 C 256.833,335.5 257.167,335.5 257.5,335.5C 257.5,343.167 257.5,350.833 257.5,358.5C 203.664,358.832 149.997,358.499 96.5,357.5C 96.8333,357.5 97.1667,357.5 97.5,357.5C 150.5,357.5 203.5,357.5 256.5,357.5C 256.5,356.5 256.5,355.5 256.5,354.5C 256.5,348.167 256.5,341.833 256.5,335.5 Z"/></g>
<g><path style="opacity:1" fill="#636363" d="M 408.5,335.5 C 409.492,342.648 409.825,349.981 409.5,357.5C 462.5,357.5 515.5,357.5 568.5,357.5C 568.833,357.5 569.167,357.5 569.5,357.5C 516.003,358.499 462.336,358.832 408.5,358.5C 408.5,350.833 408.5,343.167 408.5,335.5 Z"/></g>
<g><path style="opacity:1" fill="#c5c5c5" d="M 298.5,359.5 C 301.765,360.46 305.098,360.46 308.5,359.5C 307.306,360.777 305.64,361.444 303.5,361.5C 301.36,361.444 299.694,360.777 298.5,359.5 Z"/></g>
</svg>
